<svg id="Calque_1" data-name="Calque 1" xmlns="http://www.w3.org/2000/svg" viewBox="0 0 1000 1000"><defs><style>.cls-1{fill:#2393d1;}.cls-2,.cls-3{fill:#009fe3;}.cls-2,.cls-4{stroke:#009fe3;stroke-miterlimit:10;}.cls-2{stroke-width:2px;}.cls-4{fill:none;}.cls-5{fill:#fff;}</style></defs><path class="cls-1" d="M343.91,704.54c27.27,21.62,53.61,41.84,87.53,48.82a127.06,127.06,0,0,0,25.3,2.31q65.2.3,130.42.07c27.21-.06,53.11-5.28,75.47-21.81C681,720.34,688.23,702,684.3,679.22c-1.12-6.47-2.06-12.3,6.33-17,40.06-22.55,79.39-46.4,119.29-69.25,20.73-11.87,42.31-21.56,67.3-20.05,18.21,1.11,31.19,9.48,39.3,25.58,7.84,15.59,1.46,28.22-7.79,40.94-6.89,9.46-15.67,16.57-25,22.84C777.77,733.75,671.63,805,563,872.55c-44.7,27.79-88.34,24.41-132.62,2-52.13-26.43-104.2-53-155.53-80.93-30.39-16.53-58.49-19.12-87,3.08-11.19,8.71-23.92,15.41-35.62,23.51-7.26,5-10.72,4.2-14.55-4.4-29.45-66.18-59.44-132.13-89.25-198.16-1.82-4-4.35-7.24,2.53-10.32,54.26-24.3,107.73-50.51,163.64-70.85C262,519.19,304.9,532.51,344.75,560c20.59,14.22,41.95,27.42,61.74,42.67,49.37,38,105.72,52.79,167,52.74,18.74,0,37.5-.82,56,3.79,14,3.48,23.94,10.51,25.49,25.65,1.5,14.52-6.73,23.39-18.87,29.43a90.25,90.25,0,0,1-40.94,9.82c-49.76-.09-99.53.19-149.29-.12-28.68-.19-55.87-8.47-83-16.8C357,705.42,351.32,701.54,343.91,704.54Z"/><rect class="cls-2" x="483.24" y="154.03" width="104.36" height="422.02"/><rect class="cls-2" x="483.24" y="154.03" width="104.36" height="422.02" transform="translate(170.38 900.45) rotate(-90)"/><path class="cls-3" d="M723.8,91.67c.79-5.71,82.69-22.77,129,25.85,47.59,50,23.36,133.45,18.93,133.67-3.88.19,7.61-63.41-31.61-109.27C797.22,91.77,723.06,97.16,723.8,91.67Z"/><path class="cls-4" d="M720.2,138.27c.46-3.92,63.38-17.53,98.14,19,33.4,35.11,19.6,94.24,15.11,94.72-4.16.44.95-49.77-32.92-83C767.69,136.76,719.8,141.71,720.2,138.27Z"/><path class="cls-3" d="M719.64,174.3c.27-2.3,37.05-10.25,57.37,11.11,19.53,20.52,11.46,55.09,8.84,55.37-2.43.26.55-29.1-19.25-48.53C747.4,173.41,719.4,176.31,719.64,174.3Z"/><circle class="cls-5" cx="535.41" cy="365.04" r="19.21"/></svg>